<?xml version="1.0" standalone="no"?>
<!DOCTYPE svg PUBLIC "-//W3C//DTD SVG 20010904//EN"
 "http://www.w3.org/TR/2001/REC-SVG-20010904/DTD/svg10.dtd">
<svg version="1.0" xmlns="http://www.w3.org/2000/svg"
 width="700.000000pt" height="700.000000pt" viewBox="0 0 700.000000 700.000000"
 preserveAspectRatio="xMidYMid meet">
<metadata>
Created by potrace 1.11, written by Peter Selinger 2001-2013
</metadata>
<g transform="translate(0.000000,700.000000) scale(0.100000,-0.100000)"
fill="#000000" stroke="none">
<path d="M3438 6595 c-2 -1 -30 -5 -63 -8 -205 -21 -439 -140 -593 -301 -84
-88 -119 -140 -249 -366 -111 -193 -464 -802 -587 -1013 -28 -49 -64 -113 -81
-141 -30 -54 -186 -323 -217 -376 -9 -15 -120 -208 -246 -427 -126 -219 -239
-414 -251 -433 -11 -19 -24 -41 -28 -49 -3 -8 -35 -63 -69 -122 -35 -60 -74
-128 -87 -151 -13 -24 -74 -128 -134 -233 -209 -362 -610 -1060 -635 -1105
-28 -51 -72 -165 -87 -225 -40 -164 -33 -380 18 -538 54 -168 128 -288 255
-412 106 -103 212 -171 348 -222 190 -72 -21 -67 2763 -67 1906 0 2526 3 2575
12 36 7 78 14 93 17 94 18 275 108 373 186 349 277 473 743 308 1156 -21 53
-243 452 -355 638 -10 17 -24 41 -32 55 -30 55 -356 621 -418 728 -27 45 -49
84 -49 87 0 2 -23 40 -50 85 -27 45 -50 83 -50 85 0 3 -22 42 -49 87 -27 46
-58 99 -68 118 -11 19 -120 208 -243 420 -122 212 -234 405 -248 430 -14 25
-80 140 -148 256 -68 117 -133 229 -145 250 -12 22 -43 76 -70 122 -27 45 -49
87 -49 92 0 6 -4 10 -10 10 -5 0 -10 4 -10 9 0 5 -62 117 -138 248 -76 131
-185 319 -242 418 -132 230 -167 281 -251 370 -131 138 -344 258 -513 289 -11
2 -37 7 -56 10 -36 7 -207 16 -212 11z m192 -831 c50 -20 104 -52 136 -80 47
-43 54 -56 774 -1304 106 -184 232 -402 280 -485 48 -82 174 -301 280 -485
106 -184 227 -393 268 -465 41 -71 116 -202 167 -290 51 -88 139 -241 197
-340 57 -99 107 -187 111 -195 4 -8 13 -24 20 -35 99 -165 234 -408 249 -447
82 -218 -57 -464 -291 -517 -29 -6 -859 -10 -2320 -10 -1843 -1 -2287 2 -2332
12 -191 45 -317 221 -302 422 6 73 35 135 193 410 79 138 151 265 162 283 10
17 26 47 36 65 37 64 364 632 373 647 13 22 103 179 126 220 11 19 71 123 133
230 62 107 121 210 131 228 11 18 37 63 58 100 110 192 196 341 216 372 18 29
195 335 420 725 29 50 78 135 110 190 32 55 63 110 69 122 6 13 14 23 19 23 4
0 7 5 7 11 0 6 23 49 51 97 29 48 60 101 70 119 162 285 202 332 334 378 80
27 185 27 255 -1z"/>
</g>
</svg>
