<svg xmlns="http://www.w3.org/2000/svg" width="512" height="512">
    <style>
        path {
            fill: #000;
        }
        @media (prefers-color-scheme: dark) {
            path {
                fill: #fff;
            }
        }
    </style>
<path fill-rule="evenodd" d="M256.305,29.524C281.611,29.682 306.221,43.862 319.032,65.75C378.375,168.09 437.5,270.557 496.409,373.147C504.777,387.856 507.845,405.368 504.917,421.997C501.305,442.512 488.418,461.226 470.562,471.923C459.407,478.606 446.543,482.21 433.378,482.292C315.126,482.538 196.874,482.538 78.623,482.292C56,482.151 33.727,470.95 20.235,452.667C8.916,437.33 3.931,417.463 6.792,398.47C8.132,389.575 11.156,380.944 15.59,373.148C74.5,270.557 133.625,168.09 192.968,65.75C205.732,43.943 230.332,29.682 255.695,29.524C255.898,29.523 256.102,29.523 256.305,29.524ZM445.19,387.756C443.971,385.613 291.325,120.844 280.759,102.793C275.73,94.284 266.213,88.738 256.241,88.634C256.121,88.633 256,88.633 255.879,88.633C245.936,88.695 236.283,94.181 231.18,102.897C176.195,197.737 121.008,292.464 66.81,387.756C60.338,399.248 62.9,415.081 73.263,423.84C78.332,428.124 84.903,430.559 91.567,430.628C94.032,430.643 398.848,430.762 420.433,430.628C431.536,430.513 442.232,423.437 446.614,413.172C450.065,405.088 449.532,395.466 445.19,387.756Z"/>
</svg>