<svg clip-rule="evenodd" fill-rule="evenodd" stroke-linejoin="round" stroke-miterlimit="2" height="60" width="60" xmlns="http://www.w3.org/2000/svg"><path d="m1574.29 770.408c-42.25 70.204-128.37 117.959-136.33 122.041-16.12 8.571-22.04 21.02-21.02 39.592 1.02 18.571-3.47 110.609-59.59 151.229-28.78 20.81-144.9 47.75-198.17 56.73-27.34 4.69-33.67 13.06-48.77 22.04-20.41 12.65-92.86 113.06-105.1 135.31 1.63-.21 228.36-70.62 238.57-72.25 26.94-4.08 47.34 3.68 60.61 23.27 12.65 18.77 25.1 37.75 37.55 56.73 4.49 6.74 8.78 13.68 13.06 20.61l4.49 7.15c1.63 2.65 3.88 5.71 4.9 9.79.82 2.86 2.65 12.45-2.86 18.17-5.1 5.3-13.87 5.3-18.57 4.08-4.49-1.23-11.22-3.88-16.73-8.37l-7.55-6.33c-5.92-5.1-17.15-7.55-25.92-7.14-10.21.41-23.68-2.86-30.21-6.94-12.65-8.16-15.92-28.57-15.92-28.77-1.63-6.74-6.53-8.57-11.02-8.57-8.16-.21-14.49 2.24-21.02 4.08-29.79 8.98-59.38 18.16-89.18 27.55l-42.65 13.26c-21.02 6.53-42.04 13.06-62.86 20-5.71 1.84-11.22 4.7-17.14 7.76-2.45 1.22-4.901 2.45-7.35 3.67-2.449 1.23-5.102 2.66-7.551 4.08-5.51 3.06-11.428 6.33-17.959 8.17-21.224 6.32-39.796-2.86-48.571-24.08-5.715-13.68-.613-40.82 2.449-48.78 19.183-49.8 81.632-143.67 81.632-144.29-1.02-.4-69.183 26.94-80.408 35.51-30.816 23.47-103.061 78.98-104.082 84.29-4.693 24.69-20 43.27-43.469 52.45-16.939 6.53-27.143 20-37.143 33.06 0 0-181.02 249.39-193.265 262.86-3.674 4.08-37.551 39.59-46.531 56.12-2.041 4.08-9.796 20.41-11.836 24.49-1.633 3.26-5.307 12.04-19.184 11.43-13.878-.61-14.286-20-14.898-28.37-1.429-20.61 3.061-40.82 13.877-62.04 1.021-2.04 13.266-20.61 8.776-35.51-4.082-13.06-7.959-33.27-1.837-43.47 9.592-16.12 26.531-16.73 49.184-20.41 15.714-2.65 27.143-10.41 38.163-26.53 23.265-33.88 110.817-158.16 130.612-186.94 5.307-7.55 9.388-17.34 11.225-26.94 5.714-28.98 23.265-49.18 53.877-61.63 6.531-2.65 128.368-104.49 128.368-117.55 0-9.39-13.265-14.49-23.47-17.35-1.428-.4-77.959-20.2-112.857-36.12-18.979-8.57-33.265-16.12-50.204-28.37-23.061-16.94-69.183-8.77-75.918-7.75-32.653 4.69-56.939 19.39-84.49 37.96-4.898 3.47-30 12.45-42.653 5.3-24.694-14.08-78.98-39.38-98.98-69.79-9.183-14.084-7.959-36.941-1.428-62.247 21.02-58.775 52.041-85.102 109.388-101.02 40.816-14.082 123.061-17.143 162.653-20.204 2.653-.817 90.408-2.858 152.04-34.49 41.021-21.021 162.858-102.041 338.16-96.531 70.82 2.245 204.7 71.429 256.33 73.47 52.65 2.244 78.98-3.674 109.39-35.102 8.57-8.98 45.1-87.756 10.61-130.817-12.86-15.918-26.12-30.204-41.43-43.265-20.61-17.551-42.04-34.286-60.61-54.082-41.02-43.469-53.67-102.857-34.29-149.183 12.45-32.449 38.58-46.531 76.33-39.184 26.53 5.102 45.92 28.98 64.9 41.633 10.61 7.142 28.37 11.224 40 14.081 14.69 3.47 25.71 14.694 25.1 22.245s-20 14.082-38.57 12.653c-22.04-1.428-59.8-1.632-82.45 5.919-15.1 5.51-21.84 22.244-17.35 38.775 3.68 13.469 32.45 37.551 43.27 46.531 21.63 17.755 44.69 33.877 62.65 56.122 20.21 25.306 30.82 54.082 34.08 85.918 4.9 48.776-7.96 92.654-32.85 134.286z" fill="#ccc" fill-rule="nonzero" transform="matrix(.0422719 0 0 .0422719 -12.2715 -13.1339)"/></svg>