<svg clip-rule="evenodd" fill-rule="evenodd" stroke-linejoin="round" stroke-miterlimit="2" height="60" width="60" xmlns="http://www.w3.org/2000/svg"><path d="m666.093 403.813c0-32.426-26.222-58.177-58.177-58.177-15.734 0-30.045 6.195-40.534 16.213-40.053-28.613-94.898-47.209-155.938-49.591l26.703-124.942 86.791 18.595c.96 21.938 19.075 39.582 41.493 39.582 22.889 0 41.485-18.595 41.485-41.493 0-22.889-18.596-41.484-41.485-41.484-16.213 0-30.524 9.537-37.2 23.368l-96.8-20.506c-2.862-.48-5.724 0-7.635 1.431-2.383 1.431-3.814 3.813-4.285 6.675l-29.573 139.245c-61.991 1.911-117.787 20.507-158.32 49.6-10.489-10.018-24.8-16.213-40.534-16.213-32.426 0-58.177 26.222-58.177 58.177 0 23.84 14.302 43.867 34.337 52.934-.96 5.715-1.431 11.44-1.431 17.644 0 89.645 104.436 162.613 233.191 162.613 128.756 0 233.192-72.488 233.192-162.613 0-5.724-.48-11.929-1.432-17.644 20.027-9.067 34.329-29.574 34.329-53.414zm-167.377 151.645c-28.614 28.613-82.978 30.524-98.712 30.524-16.213 0-70.577-2.391-98.72-30.524-4.284-4.294-4.284-10.969 0-15.262 4.294-4.285 10.969-4.285 15.263 0 18.124 18.124 56.275 24.32 83.457 24.32 27.183 0 65.805-6.196 83.449-24.32 4.294-4.285 10.969-4.285 15.263 0 3.813 4.293 3.813 10.968 0 15.262zm-7.636-68.196c-22.889 0-41.484-18.595-41.484-41.484s18.595-41.485 41.484-41.485c22.898 0 41.493 18.596 41.493 41.485 0 22.409-18.595 41.484-41.493 41.484zm-224.604-41.964c0-22.889 18.595-41.485 41.493-41.485 22.889 0 41.484 18.596 41.484 41.485s-18.595 41.493-41.484 41.493c-22.898.471-41.493-18.604-41.493-41.493z" fill="#ccc" transform="matrix(.112658 0 0 .112658 -15.0632 -15.0632)"/></svg>